<svg width="236" height="101" viewBox="0 0 236 101" fill="none" xmlns="http://www.w3.org/2000/svg">
<path d="M212.543 50.4359H24V52.4359H212.543V50.4359Z" fill="url(#paint0_linear_17_81)"/>
<path d="M28.1661 24.4679C28.1661 26.954 27.783 29.1226 27.0169 30.9733C26.2508 32.7965 25.1699 34.3158 23.7745 35.5313C22.379 36.7191 20.7099 37.6169 18.7672 38.2246C16.8244 38.8047 14.6901 39.0948 12.3644 39.0948C11.2152 39.0948 9.94281 39.0395 8.54733 38.929C7.17921 38.8461 5.93424 38.6666 4.81238 38.3904V10.5454C5.93424 10.2692 7.17921 10.0896 8.54733 10.0068C9.94281 9.89627 11.2152 9.84102 12.3644 9.84102C14.6901 9.84102 16.8244 10.1449 18.7672 10.7526C20.7099 11.3327 22.379 12.2305 23.7745 13.4459C25.1699 14.6337 26.2508 16.1531 27.0169 18.0039C27.783 19.8271 28.1661 21.9817 28.1661 24.4679ZM12.6927 35.5727C16.4687 35.5727 19.287 34.6058 21.1477 32.6722C23.0084 30.7109 23.9386 27.9761 23.9386 24.4679C23.9386 20.9597 23.0084 18.2387 21.1477 16.305C19.287 14.3437 16.4687 13.3631 12.6927 13.3631C11.5709 13.3631 10.6953 13.3769 10.0659 13.4045C9.46398 13.4321 9.03986 13.4598 8.7936 13.4874V35.4484C9.03986 35.476 9.46398 35.5037 10.0659 35.5313C10.6953 35.5589 11.5709 35.5727 12.6927 35.5727ZM32.6354 28.1143C32.6354 26.2082 32.9089 24.5508 33.4562 23.1419C34.0035 21.7055 34.7286 20.5176 35.6315 19.5785C36.5345 18.6393 37.5743 17.9349 38.7508 17.4652C39.9274 16.9956 41.1314 16.7608 42.3627 16.7608C45.2357 16.7608 47.4383 17.6724 48.9707 19.4956C50.503 21.2912 51.2691 24.0397 51.2691 27.7413C51.2691 27.9071 51.2691 28.1281 51.2691 28.4043C51.2691 28.6529 51.2554 28.8877 51.2281 29.1087H36.6166C36.7808 31.3463 37.4237 33.0451 38.5456 34.2053C39.6675 35.3655 41.4187 35.9456 43.7992 35.9456C45.1399 35.9456 46.2618 35.8352 47.1648 35.6141C48.095 35.3655 48.7928 35.1308 49.258 34.9097L49.7915 38.1417C49.3263 38.3904 48.5055 38.6528 47.3289 38.929C46.1797 39.2052 44.8663 39.3434 43.3888 39.3434C41.5281 39.3434 39.9138 39.0672 38.5456 38.5147C37.2049 37.9346 36.0967 37.1473 35.2211 36.1528C34.3455 35.1584 33.6888 33.9843 33.251 32.6308C32.8406 31.2495 32.6354 29.7441 32.6354 28.1143ZM47.2879 26.001C47.3152 24.2607 46.8775 22.838 45.9745 21.7331C45.0989 20.6005 43.8813 20.0343 42.3216 20.0343C41.446 20.0343 40.6662 20.2139 39.9822 20.5729C39.3255 20.9044 38.7646 21.3463 38.2994 21.8989C37.8342 22.4514 37.4648 23.0867 37.1912 23.8049C36.9449 24.5232 36.7808 25.2552 36.6987 26.001H47.2879ZM47.2468 9.13661L41.4597 14.8133L39.5307 13.073L44.7842 6.69189L47.2468 9.13661ZM66.0281 39.3434C64.3043 39.3434 62.7857 39.0672 61.4723 38.5147C60.1862 37.9621 59.0917 37.1887 58.1888 36.1943C57.3131 35.1998 56.6565 34.0257 56.2187 32.6722C55.7809 31.291 55.562 29.7717 55.562 28.1143C55.562 26.4568 55.7945 24.9375 56.2597 23.5563C56.7523 22.1751 57.4363 20.9873 58.3119 19.9928C59.1876 18.9708 60.2547 18.1835 61.5133 17.631C62.7994 17.0509 64.2222 16.7608 65.7818 16.7608C66.7395 16.7608 67.6971 16.8437 68.6549 17.0094C69.6126 17.1752 70.5292 17.4376 71.4048 17.7967L70.5429 21.0702C69.9683 20.794 69.2978 20.5729 68.5317 20.4072C67.793 20.2414 66.9994 20.1586 66.1512 20.1586C64.017 20.1586 62.3752 20.8354 61.226 22.1889C60.1041 23.5424 59.5432 25.5176 59.5432 28.1143C59.5432 29.2745 59.6663 30.3379 59.9126 31.3048C60.1862 32.2717 60.5966 33.1004 61.1439 33.791C61.7185 34.4815 62.4436 35.0202 63.3192 35.407C64.1949 35.766 65.262 35.9456 66.5206 35.9456C67.533 35.9456 68.4497 35.8489 69.2705 35.6556C70.0914 35.4623 70.7344 35.2551 71.1996 35.034L71.7331 38.266C71.5142 38.4042 71.1996 38.5422 70.7891 38.6804C70.3787 38.7909 69.9135 38.8876 69.3937 38.9705C68.8738 39.0809 68.3128 39.1638 67.7109 39.2191C67.1363 39.3019 66.5754 39.3434 66.0281 39.3434ZM79.6481 38.8462H75.8311V17.2995H79.6481V38.8462ZM77.7191 13.4045C77.0351 13.4045 76.4467 13.1835 75.9542 12.7415C75.489 12.2719 75.2565 11.6504 75.2565 10.8769C75.2565 10.1035 75.489 9.49572 75.9542 9.05374C76.4467 8.58413 77.0351 8.34933 77.7191 8.34933C78.4031 8.34933 78.9777 8.58413 79.4429 9.05374C79.9354 9.49572 80.1817 10.1035 80.1817 10.8769C80.1817 11.6504 79.9354 12.2719 79.4429 12.7415C78.9777 13.1835 78.4031 13.4045 77.7191 13.4045ZM105.051 28.0728C105.051 29.7855 104.805 31.3324 104.312 32.7136C103.82 34.0949 103.122 35.2827 102.219 36.2771C101.344 37.2716 100.29 38.045 99.0589 38.5975C97.8276 39.1223 96.4867 39.3848 95.0366 39.3848C93.5863 39.3848 92.2456 39.1223 91.0143 38.5975C89.783 38.045 88.7159 37.2716 87.8129 36.2771C86.9373 35.2827 86.2533 34.0949 85.7608 32.7136C85.2682 31.3324 85.022 29.7855 85.022 28.0728C85.022 26.3878 85.2682 24.8547 85.7608 23.4734C86.2533 22.0646 86.9373 20.863 87.8129 19.8685C88.7159 18.874 89.783 18.1143 91.0143 17.5895C92.2456 17.037 93.5863 16.7608 95.0366 16.7608C96.4867 16.7608 97.8276 17.037 99.0589 17.5895C100.29 18.1143 101.344 18.874 102.219 19.8685C103.122 20.863 103.82 22.0646 104.312 23.4734C104.805 24.8547 105.051 26.3878 105.051 28.0728ZM101.07 28.0728C101.07 25.642 100.523 23.722 99.4282 22.3132C98.3611 20.8768 96.8971 20.1586 95.0366 20.1586C93.1759 20.1586 91.6983 20.8768 90.6039 22.3132C89.5368 23.722 89.0032 25.642 89.0032 28.0728C89.0032 30.5037 89.5368 32.4374 90.6039 33.8738C91.6983 35.2827 93.1759 35.9871 95.0366 35.9871C96.8971 35.9871 98.3611 35.2827 99.4282 33.8738C100.523 32.4374 101.07 30.5037 101.07 28.0728ZM139.663 38.8462C139.06 37.8241 138.363 36.6776 137.57 35.407C136.803 34.1363 135.969 32.8241 135.066 31.4706C134.163 30.0893 133.219 28.6944 132.234 27.2855C131.276 25.8767 130.318 24.5232 129.361 23.2248C128.403 21.8989 127.473 20.6558 126.57 19.4956C125.667 18.3354 124.832 17.3133 124.066 16.4293V38.8462H120.167V10.1311H123.327C124.613 11.5123 125.981 13.1283 127.432 14.9791C128.91 16.8023 130.359 18.6944 131.783 20.6558C133.232 22.5894 134.587 24.4955 135.846 26.3739C137.131 28.2524 138.213 29.9236 139.089 31.3877V10.1311H142.988V38.8462H139.663ZM166.774 38.2246C165.898 38.4456 164.734 38.6804 163.285 38.929C161.861 39.1776 160.207 39.3019 158.319 39.3019C156.677 39.3019 155.294 39.0672 154.173 38.5975C153.051 38.1003 152.148 37.4098 151.465 36.5257C150.78 35.6417 150.287 34.6058 149.987 33.418C149.686 32.2026 149.536 30.8629 149.536 29.3988V17.2995H153.353V28.57C153.353 31.1944 153.763 33.0727 154.584 34.2053C155.405 35.338 156.786 35.9042 158.729 35.9042C159.14 35.9042 159.563 35.8903 160.002 35.8628C160.439 35.8352 160.849 35.8075 161.233 35.7799C161.615 35.7246 161.958 35.6832 162.259 35.6556C162.587 35.6003 162.82 35.5451 162.957 35.4898V17.2995H166.774V38.2246ZM173.35 17.921C174.224 17.7 175.388 17.4652 176.838 17.2166C178.288 16.968 179.958 16.8437 181.846 16.8437C183.541 16.8437 184.951 17.0923 186.073 17.5895C187.194 18.0592 188.084 18.7359 188.741 19.6199C189.425 20.4762 189.903 21.5121 190.178 22.7276C190.451 23.9431 190.588 25.2828 190.588 26.7469V38.8462H186.771V27.5756C186.771 26.2496 186.675 25.117 186.484 24.1778C186.319 23.2387 186.032 22.479 185.622 21.8989C185.211 21.3188 184.664 20.9044 183.98 20.6558C183.295 20.3796 182.447 20.2414 181.435 20.2414C181.025 20.2414 180.6 20.2553 180.163 20.2829C179.724 20.3104 179.301 20.3519 178.891 20.4072C178.507 20.4348 178.152 20.4762 177.823 20.5315C177.522 20.5868 177.303 20.6282 177.167 20.6558V38.8462H173.35V17.921ZM195.727 28.1143C195.727 26.2082 196.001 24.5508 196.548 23.1419C197.095 21.7055 197.821 20.5176 198.724 19.5785C199.627 18.6393 200.665 17.9349 201.843 17.4652C203.019 16.9956 204.223 16.7608 205.455 16.7608C208.328 16.7608 210.53 17.6724 212.063 19.4956C213.594 21.2912 214.361 24.0397 214.361 27.7413C214.361 27.9071 214.361 28.1281 214.361 28.4043C214.361 28.6529 214.347 28.8877 214.32 29.1087H199.709C199.873 31.3463 200.515 33.0451 201.638 34.2053C202.759 35.3655 204.511 35.9456 206.891 35.9456C208.232 35.9456 209.354 35.8352 210.257 35.6141C211.187 35.3655 211.884 35.1308 212.35 34.9097L212.884 38.1417C212.418 38.3904 211.597 38.6528 210.421 38.929C209.272 39.2052 207.958 39.3434 206.481 39.3434C204.62 39.3434 203.005 39.0672 201.638 38.5147C200.296 37.9346 199.188 37.1473 198.313 36.1528C197.437 35.1584 196.78 33.9843 196.343 32.6308C195.933 31.2495 195.727 29.7441 195.727 28.1143ZM210.38 26.001C210.407 24.2607 209.97 22.838 209.067 21.7331C208.191 20.6005 206.973 20.0343 205.414 20.0343C204.538 20.0343 203.758 20.2139 203.074 20.5729C202.417 20.9044 201.856 21.3463 201.391 21.8989C200.926 22.4514 200.556 23.0867 200.283 23.8049C200.037 24.5232 199.873 25.2552 199.791 26.001H210.38ZM224.811 36.0699C226.37 36.0699 227.519 35.8628 228.258 35.4484C229.024 35.034 229.407 34.3711 229.407 33.4595C229.407 32.5203 229.038 31.7745 228.299 31.2219C227.56 30.6694 226.342 30.0479 224.646 29.3573C223.826 29.0258 223.032 28.6944 222.266 28.3629C221.527 28.0038 220.883 27.5894 220.337 27.1198C219.789 26.6501 219.352 26.0839 219.023 25.4209C218.695 24.7579 218.531 23.9431 218.531 22.9762C218.531 21.0702 219.229 19.5646 220.624 18.4597C222.02 17.3271 223.92 16.7608 226.329 16.7608C226.931 16.7608 227.532 16.8023 228.135 16.8851C228.737 16.9404 229.297 17.0233 229.818 17.1337C230.337 17.2166 230.789 17.3133 231.172 17.4238C231.583 17.5342 231.897 17.631 232.116 17.7138L231.419 21.0287C231.008 20.8077 230.364 20.5868 229.49 20.3657C228.613 20.1171 227.56 19.9928 226.329 19.9928C225.262 19.9928 224.331 20.2139 223.538 20.6558C222.744 21.0702 222.348 21.7331 222.348 22.6447C222.348 23.1144 222.43 23.5287 222.594 23.8878C222.785 24.2469 223.059 24.5783 223.415 24.8823C223.797 25.1584 224.263 25.4209 224.811 25.6695C225.357 25.9181 226.014 26.1806 226.781 26.4568C227.793 26.8436 228.696 27.2302 229.49 27.617C230.282 27.9761 230.953 28.4043 231.501 28.9015C232.075 29.3988 232.513 30.0065 232.814 30.7247C233.114 31.4153 233.266 32.2717 233.266 33.2937C233.266 35.2827 232.527 36.7882 231.049 37.8103C229.599 38.8323 227.519 39.3434 224.811 39.3434C222.923 39.3434 221.445 39.1776 220.378 38.8462C219.311 38.5422 218.585 38.3075 218.203 38.1417L218.9 34.8269C219.338 34.9926 220.035 35.2412 220.994 35.5727C221.95 35.9042 223.223 36.0699 224.811 36.0699Z" fill="#EAEAEA"/>
<g filter="url(#filter0_d_17_81)">
<path d="M5.59216 90.641V52.9525H30.8031V60.0769H13.9958V67.4732H28.9177V74.4344H13.9958V83.5167H32.0421V90.641H5.59216ZM37.7224 63.0137C39.0871 62.6148 40.8468 62.2523 43.0016 61.926C45.1564 61.5634 47.4189 61.3821 49.7892 61.3821C52.1954 61.3821 54.1885 61.7084 55.7687 62.361C57.3848 62.9774 58.6597 63.8657 59.5935 65.0259C60.5272 66.1861 61.1916 67.5638 61.5866 69.1591C61.9817 70.7544 62.1792 72.531 62.1792 74.4888V90.641H54.1526V75.4677C54.1526 72.8573 53.8115 71.0082 53.1291 69.9205C52.4468 68.8328 51.1718 68.289 49.3044 68.289C48.7298 68.289 48.1192 68.3252 47.4728 68.3977C46.8264 68.434 46.2518 68.4884 45.749 68.5609V90.641H37.7224V63.0137ZM77.5787 84.8219C79.0511 84.8219 80.0926 84.6769 80.7031 84.3868C81.3137 84.0968 81.6189 83.5348 81.6189 82.7009C81.6189 82.0483 81.2239 81.4863 80.4338 81.015C79.6437 80.5074 78.4406 79.9454 76.8245 79.329C75.5676 78.8577 74.4184 78.3682 73.3769 77.8607C72.3713 77.3531 71.5094 76.7548 70.7911 76.066C70.0729 75.3408 69.5162 74.4888 69.1212 73.5099C68.7261 72.531 68.5286 71.3526 68.5286 69.9749C68.5286 67.2919 69.5162 65.1709 71.4914 63.6119C73.4667 62.0529 76.1781 61.2733 79.6257 61.2733C81.3496 61.2733 83.0016 61.4365 84.5817 61.7628C86.1619 62.0529 87.4189 62.3792 88.3526 62.7417L86.952 69.0503C86.0183 68.724 84.9948 68.434 83.8814 68.1802C82.8041 67.9264 81.583 67.7995 80.2183 67.7995C77.7044 67.7995 76.4474 68.5065 76.4474 69.9205C76.4474 70.2468 76.5013 70.5369 76.6091 70.7907C76.7168 71.0444 76.9323 71.2982 77.2555 71.552C77.5787 71.7696 78.0097 72.0234 78.5484 72.3134C79.123 72.5672 79.8412 72.8573 80.7031 73.1836C82.4629 73.8362 83.9174 74.4888 85.0666 75.1414C86.2158 75.7578 87.1136 76.4467 87.7601 77.208C88.4424 77.9332 88.9093 78.7489 89.1607 79.6553C89.448 80.5618 89.5916 81.6132 89.5916 82.8097C89.5916 85.6377 88.5322 87.7768 86.4133 89.227C84.3304 90.6773 81.3675 91.4024 77.5248 91.4024C75.0109 91.4024 72.91 91.1849 71.2221 90.7498C69.5701 90.3147 68.4209 89.9522 67.7744 89.6621L69.1212 83.0816C70.4859 83.6254 71.8865 84.0605 73.323 84.3868C74.7595 84.6769 76.1781 84.8219 77.5787 84.8219ZM106.418 84.985C107.208 84.985 107.962 84.9669 108.68 84.9306C109.399 84.8944 109.973 84.84 110.404 84.7675V78.622C110.081 78.5495 109.596 78.477 108.95 78.4045C108.303 78.332 107.711 78.2957 107.172 78.2957C106.418 78.2957 105.7 78.3501 105.017 78.4589C104.371 78.5314 103.796 78.6946 103.293 78.9483C102.791 79.2021 102.396 79.5466 102.108 79.9817C101.821 80.4167 101.677 80.9606 101.677 81.6132C101.677 82.8822 102.09 83.7704 102.916 84.278C103.778 84.7494 104.945 84.985 106.418 84.985ZM105.771 61.2733C108.142 61.2733 110.117 61.5453 111.697 62.0891C113.277 62.633 114.534 63.4125 115.468 64.4277C116.438 65.4428 117.12 66.6756 117.515 68.1258C117.91 69.5761 118.108 71.1895 118.108 72.966V89.8253C116.958 90.0791 115.36 90.3691 113.313 90.6954C111.266 91.058 108.788 91.2393 105.879 91.2393C104.048 91.2393 102.378 91.0761 100.869 90.7498C99.3969 90.4235 98.122 89.8978 97.0446 89.1726C95.9672 88.4113 95.1412 87.4323 94.5666 86.2359C93.992 85.0394 93.7047 83.571 93.7047 81.8307C93.7047 80.1629 94.0279 78.7489 94.6743 77.5887C95.3567 76.4285 96.2545 75.504 97.3678 74.8151C98.4811 74.1262 99.756 73.6368 101.193 73.3467C102.629 73.0204 104.119 72.8573 105.664 72.8573C106.705 72.8573 107.621 72.9117 108.411 73.0204C109.237 73.0929 109.901 73.2017 110.404 73.3467V72.5853C110.404 71.2076 109.991 70.1018 109.165 69.2679C108.339 68.434 106.903 68.017 104.856 68.017C103.491 68.017 102.144 68.1258 100.815 68.3433C99.4867 68.5246 98.3375 68.7966 97.3678 69.1591L96.3443 62.633C96.8112 62.4879 97.3858 62.3429 98.0681 62.1979C98.7864 62.0166 99.5585 61.8716 100.385 61.7628C101.211 61.6178 102.072 61.509 102.97 61.4365C103.904 61.3277 104.838 61.2733 105.771 61.2733ZM133.393 90.641H125.366V62.0347H133.393V90.641ZM134.147 53.7683C134.147 55.2548 133.662 56.4331 132.692 57.3033C131.759 58.1372 130.645 58.5541 129.352 58.5541C128.059 58.5541 126.928 58.1372 125.958 57.3033C125.024 56.4331 124.558 55.2548 124.558 53.7683C124.558 52.2818 125.024 51.1215 125.958 50.2877C126.928 49.4175 128.059 48.9824 129.352 48.9824C130.645 48.9824 131.759 49.4175 132.692 50.2877C133.662 51.1215 134.147 52.2818 134.147 53.7683ZM167.441 76.2835C167.441 78.5314 167.117 80.598 166.471 82.4833C165.825 84.3324 164.891 85.9277 163.67 87.2692C162.449 88.5744 160.976 89.5896 159.253 90.3147C157.565 91.0399 155.661 91.4024 153.542 91.4024C151.459 91.4024 149.556 91.0399 147.832 90.3147C146.144 89.5896 144.69 88.5744 143.469 87.2692C142.248 85.9277 141.296 84.3324 140.614 82.4833C139.931 80.598 139.59 78.5314 139.59 76.2835C139.59 74.0356 139.931 71.9871 140.614 70.138C141.332 68.289 142.302 66.7118 143.523 65.4066C144.78 64.1013 146.252 63.0862 147.94 62.361C149.664 61.6359 151.531 61.2733 153.542 61.2733C155.589 61.2733 157.457 61.6359 159.145 62.361C160.869 63.0862 162.341 64.1013 163.562 65.4066C164.783 66.7118 165.735 68.289 166.417 70.138C167.1 71.9871 167.441 74.0356 167.441 76.2835ZM159.253 76.2835C159.253 73.7818 158.75 71.824 157.744 70.41C156.775 68.9597 155.374 68.2346 153.542 68.2346C151.711 68.2346 150.292 68.9597 149.287 70.41C148.281 71.824 147.778 73.7818 147.778 76.2835C147.778 78.7852 148.281 80.7793 149.287 82.2658C150.292 83.7161 151.711 84.4412 153.542 84.4412C155.374 84.4412 156.775 83.7161 157.744 82.2658C158.75 80.7793 159.253 78.7852 159.253 76.2835ZM181.793 84.8219C183.266 84.8219 184.307 84.6769 184.918 84.3868C185.528 84.0968 185.833 83.5348 185.833 82.7009C185.833 82.0483 185.438 81.4863 184.648 81.015C183.858 80.5074 182.655 79.9454 181.039 79.329C179.782 78.8577 178.633 78.3682 177.591 77.8607C176.586 77.3531 175.724 76.7548 175.006 76.066C174.287 75.3408 173.731 74.4888 173.336 73.5099C172.941 72.531 172.743 71.3526 172.743 69.9749C172.743 67.2919 173.731 65.1709 175.706 63.6119C177.681 62.0529 180.392 61.2733 183.84 61.2733C185.564 61.2733 187.216 61.4365 188.796 61.7628C190.376 62.0529 191.633 62.3792 192.567 62.7417L191.166 69.0503C190.233 68.724 189.209 68.434 188.096 68.1802C187.018 67.9264 185.797 67.7995 184.433 67.7995C181.919 67.7995 180.662 68.5065 180.662 69.9205C180.662 70.2468 180.716 70.5369 180.823 70.7907C180.931 71.0444 181.147 71.2982 181.47 71.552C181.793 71.7696 182.224 72.0234 182.763 72.3134C183.337 72.5672 184.056 72.8573 184.918 73.1836C186.677 73.8362 188.132 74.4888 189.281 75.1414C190.43 75.7578 191.328 76.4467 191.974 77.208C192.657 77.9332 193.124 78.7489 193.375 79.6553C193.662 80.5618 193.806 81.6132 193.806 82.8097C193.806 85.6377 192.747 87.7768 190.628 89.227C188.545 90.6773 185.582 91.4024 181.739 91.4024C179.225 91.4024 177.124 91.1849 175.437 90.7498C173.785 90.3147 172.635 89.9522 171.989 89.6621L173.336 83.0816C174.7 83.6254 176.101 84.0605 177.537 84.3868C178.974 84.6769 180.393 84.8219 181.793 84.8219Z" fill="#EAEAEA"/>
</g>
<g filter="url(#filter1_d_17_81)">
<path d="M32.7271 52.8204C32.7271 52.4268 32.7835 52.0694 32.8964 51.7483C33.0195 51.4271 33.1785 51.1371 33.3735 50.8781C33.5787 50.6191 33.8096 50.3912 34.0661 50.1944C34.3329 49.9976 34.6099 49.8215 34.8972 49.6661C34.5894 49.3346 34.338 48.9824 34.1431 48.6095C33.9584 48.2366 33.866 47.8429 33.866 47.4286C33.866 46.5584 34.1277 45.8799 34.651 45.393C35.1845 44.9062 35.8823 44.6627 36.7442 44.6627C37.1854 44.6627 37.5753 44.7249 37.9139 44.8492C38.2628 44.9735 38.5501 45.1444 38.7758 45.3619C39.0016 45.5795 39.1709 45.8385 39.2837 46.1389C39.4069 46.4289 39.4684 46.7397 39.4684 47.0712C39.4684 47.4027 39.412 47.7134 39.2991 48.0035C39.1965 48.2935 39.0529 48.5629 38.8682 48.8115C38.6835 49.0497 38.468 49.2725 38.2217 49.4796C37.9857 49.6765 37.7292 49.8526 37.4522 50.0079L39.5608 52.1523C39.7044 51.8829 39.8224 51.5825 39.9148 51.251C40.0071 50.9092 40.079 50.5777 40.1303 50.2566L41.6848 50.4586C41.6335 50.8729 41.5257 51.3339 41.3616 51.8415C41.1974 52.3387 40.9819 52.8152 40.7151 53.271C41.0537 53.6543 41.377 54.0531 41.6848 54.4675C42.0029 54.8715 42.2645 55.2755 42.4697 55.6795H40.5304C40.4278 55.5034 40.2944 55.3117 40.1303 55.1046C39.9764 54.8974 39.8122 54.7057 39.6377 54.5296C39.217 54.9129 38.7348 55.2237 38.191 55.4619C37.6471 55.7002 37.0315 55.8193 36.344 55.8193C35.6565 55.8193 35.0819 55.7261 34.6202 55.5396C34.1584 55.3532 33.7839 55.1149 33.4966 54.8249C33.2196 54.5348 33.0195 54.2137 32.8964 53.8615C32.7835 53.5093 32.7271 53.1623 32.7271 52.8204ZM34.5124 52.6961C34.5124 52.8722 34.5432 53.0535 34.6048 53.2399C34.6766 53.4264 34.7844 53.6025 34.928 53.7683C35.0819 53.9236 35.2769 54.0531 35.5129 54.1567C35.7591 54.2603 36.0516 54.3121 36.3902 54.3121C36.8519 54.3121 37.2675 54.2396 37.6369 54.0946C38.0165 53.9495 38.3397 53.7424 38.6065 53.473L35.8977 50.6916C35.7437 50.7745 35.5847 50.8729 35.4205 50.9869C35.2564 51.1008 35.1076 51.2407 34.9742 51.4064C34.8408 51.5618 34.7279 51.7483 34.6356 51.9658C34.5535 52.173 34.5124 52.4164 34.5124 52.6961ZM37.8524 47.1489C37.8524 46.8485 37.7549 46.5947 37.5599 46.3875C37.365 46.1699 37.0828 46.0612 36.7134 46.0612C36.3235 46.0612 36.0259 46.1803 35.8207 46.4186C35.6155 46.6568 35.5129 46.9572 35.5129 47.3198C35.5129 47.6202 35.595 47.9206 35.7591 48.221C35.9233 48.5111 36.1491 48.7908 36.4364 49.0601C36.6313 48.9565 36.8109 48.8426 36.975 48.7183C37.1495 48.5939 37.2983 48.4541 37.4214 48.2987C37.5548 48.1433 37.6574 47.9724 37.7292 47.7859C37.8113 47.5995 37.8524 47.3871 37.8524 47.1489ZM53.3687 55.8452C52.6162 55.8452 51.8569 55.8176 51.0908 55.7624C50.3247 55.7209 49.6543 55.6242 49.0797 55.4723V41.5291C49.3807 41.4738 49.7021 41.4255 50.0442 41.3841C50.3863 41.3288 50.7351 41.2874 51.0908 41.2598C51.4465 41.2322 51.7953 41.2115 52.1374 41.1976C52.4931 41.1838 52.8283 41.1769 53.143 41.1769C54.0049 41.1769 54.8052 41.2459 55.544 41.3841C56.2828 41.5084 56.919 41.7225 57.4525 42.0264C57.9998 42.3303 58.4239 42.7308 58.7249 43.228C59.0259 43.7252 59.1764 44.3399 59.1764 45.0719C59.1764 45.7487 59.0122 46.3288 58.6838 46.8122C58.3692 47.2956 57.9245 47.6824 57.3499 47.9724C58.2118 48.2625 58.848 48.6907 59.2585 49.2569C59.6689 49.8232 59.8741 50.5414 59.8741 51.4116C59.8741 52.8894 59.3405 54.0013 58.2734 54.7472C57.2063 55.4792 55.5713 55.8452 53.3687 55.8452ZM51.6244 49.2155V53.587C51.9117 53.6146 52.2195 53.6353 52.5478 53.6491C52.8762 53.663 53.1772 53.6698 53.4508 53.6698C53.9844 53.6698 54.4769 53.6353 54.9284 53.5663C55.3936 53.4972 55.7903 53.3798 56.1186 53.214C56.4607 53.0345 56.7275 52.7997 56.919 52.5096C57.1242 52.2196 57.2268 51.8467 57.2268 51.3909C57.2268 50.576 56.9327 50.0096 56.3444 49.692C55.756 49.3744 54.9421 49.2155 53.9023 49.2155H51.6244ZM51.6244 47.1644H53.4508C54.4358 47.1644 55.2089 47.0262 55.7698 46.75C56.3306 46.46 56.6111 45.9489 56.6111 45.2169C56.6111 44.5264 56.317 44.036 55.7287 43.7459C55.1541 43.4559 54.4016 43.3109 53.4713 43.3109C53.0746 43.3109 52.7188 43.3177 52.4042 43.3316C52.1032 43.3454 51.8433 43.3662 51.6244 43.3937V47.1644ZM66.2199 53.9185C66.9862 53.9185 67.5676 53.877 67.9643 53.7941V51.0179C67.8276 50.9765 67.6291 50.9351 67.3692 50.8936C67.1093 50.8522 66.822 50.8315 66.5072 50.8315C66.2337 50.8315 65.9532 50.8522 65.6659 50.8936C65.3923 50.9351 65.1392 51.0111 64.9065 51.1215C64.6877 51.232 64.5098 51.3909 64.373 51.598C64.2363 51.7914 64.1678 52.04 64.1678 52.3439C64.1678 52.9379 64.3525 53.3522 64.7219 53.587C65.0912 53.808 65.5907 53.9185 66.2199 53.9185ZM66.0147 44.5747C66.8356 44.5747 67.5265 44.6783 68.0874 44.8854C68.6484 45.0926 69.093 45.3827 69.4213 45.7556C69.7634 46.1285 70.0029 46.5843 70.1396 47.123C70.2902 47.6478 70.3653 48.2279 70.3653 48.8633V55.4309C69.9823 55.5137 69.4008 55.6105 68.621 55.7209C67.8549 55.8452 66.9862 55.9074 66.0147 55.9074C65.3718 55.9074 64.7834 55.8452 64.2499 55.7209C63.7163 55.5966 63.258 55.3963 62.8749 55.1201C62.5055 54.8439 62.2114 54.4847 61.9925 54.0428C61.7872 53.6008 61.6846 53.0552 61.6846 52.406C61.6846 51.7845 61.801 51.2597 62.0335 50.8315C62.2798 50.4033 62.6081 50.0581 63.0185 49.7956C63.429 49.5194 63.901 49.3259 64.4345 49.2155C64.9818 49.0912 65.5497 49.029 66.1379 49.029C66.4116 49.029 66.6989 49.0497 66.9998 49.0912C67.3008 49.1188 67.6223 49.1741 67.9643 49.2569V48.8426C67.9643 48.5525 67.9302 48.2763 67.8617 48.0138C67.7933 47.7514 67.6702 47.5235 67.4923 47.3301C67.3281 47.123 67.1024 46.9641 66.8151 46.8536C66.5415 46.7432 66.1926 46.6879 65.7685 46.6879C65.1939 46.6879 64.6672 46.7293 64.1883 46.8122C63.7095 46.8951 63.3196 46.9918 63.0185 47.1023L62.7107 45.0719C63.0255 44.9614 63.4837 44.8509 64.0857 44.7404C64.6877 44.63 65.3307 44.5747 66.0147 44.5747ZM73.4063 45.1962C73.8851 45.058 74.5076 44.9269 75.2737 44.8026C76.0398 44.6783 76.8882 44.6161 77.8184 44.6161C78.6941 44.6161 79.4259 44.7404 80.0143 44.989C80.6026 45.2238 81.0677 45.5623 81.4098 46.0042C81.7654 46.4324 82.0117 46.9572 82.1485 47.5788C82.299 48.1864 82.3743 48.8564 82.3743 49.5884V55.6795H79.8911V49.982C79.8911 49.4019 79.8501 48.9116 79.768 48.5111C79.6996 48.0967 79.5765 47.7652 79.3986 47.5166C79.2344 47.2541 79.0019 47.0677 78.7009 46.9572C78.4136 46.8329 78.0579 46.7708 77.6338 46.7708C77.3191 46.7708 76.9908 46.7915 76.6487 46.8329C76.3066 46.8744 76.0536 46.9089 75.8894 46.9365V55.6795H73.4063V45.1962ZM87.3603 50.2307C87.3603 51.3356 87.6201 52.2057 88.1401 52.8411C88.66 53.4627 89.3782 53.7734 90.2949 53.7734C90.6916 53.7734 91.0268 53.7596 91.3005 53.732C91.5878 53.6906 91.8203 53.6491 91.9982 53.6077V47.3923C91.7793 47.2404 91.4852 47.1023 91.1158 46.9779C90.76 46.8398 90.377 46.7708 89.9665 46.7708C89.0636 46.7708 88.4 47.0815 87.9759 47.7031C87.5655 48.3246 87.3603 49.1672 87.3603 50.2307ZM94.4813 55.348C93.9888 55.4999 93.3662 55.638 92.6138 55.7624C91.8751 55.8867 91.0952 55.9488 90.2744 55.9488C89.4261 55.9488 88.6667 55.8176 87.9965 55.5552C87.326 55.2927 86.7514 54.9198 86.2726 54.4364C85.8074 53.9392 85.4448 53.3452 85.185 52.6547C84.9387 51.9503 84.8156 51.163 84.8156 50.2928C84.8156 49.4365 84.9182 48.663 85.1234 47.9724C85.3422 47.268 85.657 46.6672 86.0674 46.1699C86.4779 45.6727 86.9772 45.2929 87.5655 45.0305C88.1537 44.7543 88.8309 44.6161 89.5972 44.6161C90.117 44.6161 90.5753 44.6783 90.9721 44.8026C91.3688 44.9269 91.7109 45.065 91.9982 45.2169V40.0167L94.4813 39.6024V55.348ZM101.412 53.9185C102.178 53.9185 102.759 53.877 103.156 53.7941V51.0179C103.019 50.9765 102.821 50.9351 102.561 50.8936C102.301 50.8522 102.014 50.8315 101.699 50.8315C101.425 50.8315 101.145 50.8522 100.857 50.8936C100.584 50.9351 100.331 51.0111 100.098 51.1215C99.8793 51.232 99.7014 51.3909 99.5646 51.598C99.4278 51.7914 99.3593 52.04 99.3593 52.3439C99.3593 52.9379 99.544 53.3522 99.9134 53.587C100.283 53.808 100.782 53.9185 101.412 53.9185ZM101.206 44.5747C102.027 44.5747 102.718 44.6783 103.279 44.8854C103.84 45.0926 104.285 45.3827 104.613 45.7556C104.955 46.1285 105.194 46.5843 105.331 47.123C105.482 47.6478 105.557 48.2279 105.557 48.8633V55.4309C105.174 55.5137 104.592 55.6105 103.813 55.7209C103.046 55.8452 102.178 55.9074 101.206 55.9074C100.563 55.9074 99.975 55.8452 99.4414 55.7209C98.9079 55.5966 98.4496 55.3963 98.0665 55.1201C97.6971 54.8439 97.403 54.4847 97.184 54.0428C96.9788 53.6008 96.8762 53.0552 96.8762 52.406C96.8762 51.7845 96.9925 51.2597 97.2251 50.8315C97.4713 50.4033 97.7997 50.0581 98.2101 49.7956C98.6206 49.5194 99.0926 49.3259 99.6261 49.2155C100.173 49.0912 100.741 49.029 101.329 49.029C101.603 49.029 101.89 49.0497 102.191 49.0912C102.492 49.1188 102.814 49.1741 103.156 49.2569V48.8426C103.156 48.5525 103.122 48.2763 103.053 48.0138C102.985 47.7514 102.862 47.5235 102.684 47.3301C102.52 47.123 102.294 46.9641 102.007 46.8536C101.733 46.7432 101.384 46.6879 100.96 46.6879C100.385 46.6879 99.8588 46.7293 99.3799 46.8122C98.9011 46.8951 98.5112 46.9918 98.2101 47.1023L97.9023 45.0719C98.217 44.9614 98.6753 44.8509 99.2773 44.7404C99.8793 44.63 100.522 44.5747 101.206 44.5747Z" fill="#EAEAEA"/>
</g>
<defs>
<filter id="filter0_d_17_81" x="1.59216" y="44.9824" width="196.214" height="50.42" filterUnits="userSpaceOnUse" color-interpolation-filters="sRGB">
<feFlood flood-opacity="0" result="BackgroundImageFix"/>
<feColorMatrix in="SourceAlpha" type="matrix" values="0 0 0 0 0 0 0 0 0 0 0 0 0 0 0 0 0 0 127 0" result="hardAlpha"/>
<feOffset/>
<feGaussianBlur stdDeviation="2"/>
<feComposite in2="hardAlpha" operator="out"/>
<feColorMatrix type="matrix" values="0 0 0 0 0.0313726 0 0 0 0 0.0313726 0 0 0 0 0.0313726 0 0 0 1 0"/>
<feBlend mode="normal" in2="BackgroundImageFix" result="effect1_dropShadow_17_81"/>
<feBlend mode="normal" in="SourceGraphic" in2="effect1_dropShadow_17_81" result="shape"/>
</filter>
<filter id="filter1_d_17_81" x="28.7271" y="35.6024" width="80.8298" height="24.3464" filterUnits="userSpaceOnUse" color-interpolation-filters="sRGB">
<feFlood flood-opacity="0" result="BackgroundImageFix"/>
<feColorMatrix in="SourceAlpha" type="matrix" values="0 0 0 0 0 0 0 0 0 0 0 0 0 0 0 0 0 0 127 0" result="hardAlpha"/>
<feOffset/>
<feGaussianBlur stdDeviation="2"/>
<feComposite in2="hardAlpha" operator="out"/>
<feColorMatrix type="matrix" values="0 0 0 0 0 0 0 0 0 0 0 0 0 0 0 0 0 0 1 0"/>
<feBlend mode="normal" in2="BackgroundImageFix" result="effect1_dropShadow_17_81"/>
<feBlend mode="normal" in="SourceGraphic" in2="effect1_dropShadow_17_81" result="shape"/>
</filter>
<linearGradient id="paint0_linear_17_81" x1="212.5" y1="51.5002" x2="24" y2="51.5004" gradientUnits="userSpaceOnUse">
<stop stop-color="#E6D70D"/>
<stop offset="1" stop-color="#343212"/>
</linearGradient>
</defs>
</svg>
